<?xml version="1.0" encoding="UTF-8" standalone="no"?>
<!-- Created with Inkscape (http://www.inkscape.org/) -->

<svg
   xmlns:osb="http://www.openswatchbook.org/uri/2009/osb"
   xmlns:dc="http://purl.org/dc/elements/1.1/"
   xmlns:cc="http://creativecommons.org/ns#"
   xmlns:rdf="http://www.w3.org/1999/02/22-rdf-syntax-ns#"
   xmlns:svg="http://www.w3.org/2000/svg"
   xmlns="http://www.w3.org/2000/svg"
   xmlns:sodipodi="http://sodipodi.sourceforge.net/DTD/sodipodi-0.dtd"
   xmlns:inkscape="http://www.inkscape.org/namespaces/inkscape"
   width="64px"
   height="64px"
   id="svg3454"
   version="1.1"
   inkscape:version="0.48.2 r9819"
   sodipodi:docname="reddit.svg">
  <defs
     id="defs3456">
    <linearGradient
       id="linearGradient6532"
       osb:paint="solid">
      <stop
         style="stop-color:#a3e0ff;stop-opacity:1;"
         offset="0"
         id="stop6534" />
    </linearGradient>
    <clipPath
       id="clipPath20">
      <path
         id="path22"
         d="M 0,792 612,792 612,0 0,0 0,792 z" />
    </clipPath>
  </defs>
  <sodipodi:namedview
     id="base"
     pagecolor="#ffffff"
     bordercolor="#666666"
     borderopacity="1.0"
     inkscape:pageopacity="0.0"
     inkscape:pageshadow="2"
     inkscape:zoom="6.1875"
     inkscape:cx="6.1653179"
     inkscape:cy="19.025259"
     inkscape:current-layer="layer1"
     showgrid="true"
     inkscape:document-units="px"
     inkscape:grid-bbox="true"
     inkscape:window-width="1280"
     inkscape:window-height="1000"
     inkscape:window-x="0"
     inkscape:window-y="24"
     inkscape:window-maximized="1" />
  <metadata
     id="metadata3459">
    <rdf:RDF>
      <cc:Work
         rdf:about="">
        <dc:format>image/svg+xml</dc:format>
        <dc:type
           rdf:resource="http://purl.org/dc/dcmitype/StillImage" />
        <dc:title></dc:title>
      </cc:Work>
    </rdf:RDF>
  </metadata>
  <g
     id="layer1"
     inkscape:label="Layer 1"
     inkscape:groupmode="layer">
    <rect
       style="fill:#a3d0ff;fill-opacity:1;stroke:#000000;stroke-opacity:1;opacity:1;stroke-width:1;stroke-miterlimit:4;stroke-dasharray:none"
       id="rect4118"
       width="59.983261"
       height="59.983261"
       x="2.142266"
       y="2.4100416"
       ry="6.0487328"
       rx="6.5527935" />
    <g
       id="g4045"
       transform="translate(49.271966,-5.8912134)">
      <g
         id="g24"
         transform="matrix(1.25,0,0,-1.25,-10.713435,42.461235)">
        <path
           style="fill:#ffffff;fill-opacity:1;fill-rule:nonzero;stroke:none"
           id="path26"
           d="m 0,0 c 2.437,0 4.412,-2.383 4.412,-5.324 0,-2.942 -1.975,-5.324 -4.412,-5.324 -2.437,0 -4.41,2.382 -4.41,5.324 C -4.41,-2.383 -2.437,0 0,0"
           inkscape:connector-curvature="0" />
      </g>
      <g
         id="g28"
         transform="matrix(1.25,0,0,-1.25,-10.713435,42.461235)">
        <path
           style="fill:none;stroke:#000000;stroke-width:1.10000002;stroke-linecap:butt;stroke-linejoin:miter;stroke-miterlimit:4;stroke-opacity:1;stroke-dasharray:none"
           id="path30"
           d="m 0,0 c 2.437,0 4.412,-2.383 4.412,-5.324 0,-2.942 -1.975,-5.324 -4.412,-5.324 -2.437,0 -4.41,2.382 -4.41,5.324 C -4.41,-2.383 -2.437,0 0,0 z"
           inkscape:connector-curvature="0" />
      </g>
      <g
         id="g32"
         transform="matrix(1.25,0,0,-1.25,-19.390685,62.700485)">
        <path
           style="fill:#ffffff;fill-opacity:1;fill-rule:nonzero;stroke:none"
           id="path34"
           d="m 0,0 c 0.063,0.197 0.108,0.401 0.108,0.615 0,1.361 -1.361,2.464 -3.04,2.464 -1.679,0 -3.039,-1.103 -3.039,-2.464 0,-0.214 0.044,-0.418 0.108,-0.615 L 0,0 z"
           inkscape:connector-curvature="0" />
      </g>
      <g
         id="g36"
         transform="matrix(1.25,0,0,-1.25,-19.390685,62.700485)">
        <path
           style="fill:none;stroke:#000000;stroke-width:1.10000002;stroke-linecap:round;stroke-linejoin:round;stroke-miterlimit:4;stroke-opacity:1;stroke-dasharray:none"
           id="path38"
           d="m 0,0 c 0.063,0.197 0.108,0.401 0.108,0.615 0,1.361 -1.361,2.464 -3.04,2.464 -1.679,0 -3.039,-1.103 -3.039,-2.464 0,-0.214 0.044,-0.418 0.108,-0.615 L 0,0 z"
           inkscape:connector-curvature="0" />
      </g>
      <g
         id="g40"
         transform="matrix(1.25,0,0,-1.25,-6.08381,62.700485)">
        <path
           style="fill:#ffffff;fill-opacity:1;fill-rule:nonzero;stroke:none"
           id="path42"
           d="m 0,0 c 0.063,0.197 0.107,0.401 0.107,0.615 0,1.361 -1.361,2.464 -3.04,2.464 -1.679,0 -3.039,-1.103 -3.039,-2.464 0,-0.214 0.044,-0.418 0.107,-0.615 L 0,0 z"
           inkscape:connector-curvature="0" />
      </g>
      <g
         id="g44"
         transform="matrix(1.25,0,0,-1.25,-6.08381,62.700485)">
        <path
           style="fill:none;stroke:#000000;stroke-width:1.10000002;stroke-linecap:round;stroke-linejoin:round;stroke-miterlimit:4;stroke-opacity:1;stroke-dasharray:none"
           id="path46"
           d="m 0,0 c 0.063,0.197 0.107,0.401 0.107,0.615 0,1.361 -1.361,2.464 -3.04,2.464 -1.679,0 -3.039,-1.103 -3.039,-2.464 0,-0.214 0.044,-0.418 0.107,-0.615 L 0,0 z"
           inkscape:connector-curvature="0" />
      </g>
      <g
         id="g48"
         transform="matrix(1.25,0,0,-1.25,-26.78756,28.38836)">
        <path
           style="fill:#ffffff;fill-opacity:1;fill-rule:nonzero;stroke:none"
           id="path50"
           d="m 0,0 c 0,-1.493 -1.21,-2.702 -2.703,-2.702 -1.492,0 -2.701,1.209 -2.701,2.702 0,1.493 1.209,2.703 2.701,2.703 C -1.21,2.703 0,1.493 0,0"
           inkscape:connector-curvature="0" />
      </g>
      <g
         id="g52"
         transform="matrix(1.25,0,0,-1.25,-26.78756,28.38836)">
        <path
           style="fill:none;stroke:#000000;stroke-width:1.10000002;stroke-linecap:butt;stroke-linejoin:miter;stroke-miterlimit:4;stroke-opacity:1;stroke-dasharray:none"
           id="path54"
           d="m 0,0 c 0,-1.493 -1.21,-2.702 -2.703,-2.702 -1.492,0 -2.701,1.209 -2.701,2.702 0,1.493 1.209,2.703 2.701,2.703 C -1.21,2.703 0,1.493 0,0 z"
           inkscape:connector-curvature="0" />
      </g>
      <g
         id="g56"
         transform="matrix(1.25,0,0,-1.25,0.840565,28.38836)">
        <path
           style="fill:#ffffff;fill-opacity:1;fill-rule:nonzero;stroke:none"
           id="path58"
           d="m 0,0 c 0,-1.493 -1.21,-2.702 -2.703,-2.702 -1.492,0 -2.701,1.209 -2.701,2.702 0,1.493 1.209,2.703 2.701,2.703 C -1.21,2.703 0,1.493 0,0"
           inkscape:connector-curvature="0" />
      </g>
      <g
         id="g60"
         transform="matrix(1.25,0,0,-1.25,0.840565,28.38836)">
        <path
           style="fill:none;stroke:#000000;stroke-width:1.10000002;stroke-linecap:butt;stroke-linejoin:miter;stroke-miterlimit:4;stroke-opacity:1;stroke-dasharray:none"
           id="path62"
           d="m 0,0 c 0,-1.493 -1.21,-2.702 -2.703,-2.702 -1.492,0 -2.701,1.209 -2.701,2.702 0,1.493 1.209,2.703 2.701,2.703 C -1.21,2.703 0,1.493 0,0 z"
           inkscape:connector-curvature="0" />
      </g>
      <g
         id="g64"
         transform="matrix(1.25,0,0,-1.25,-6.98781,16.533485)">
        <path
           style="fill:none;stroke:#000000;stroke-width:1.10000002;stroke-linecap:round;stroke-linejoin:round;stroke-miterlimit:4;stroke-opacity:1;stroke-dasharray:none"
           id="path66"
           d="M 0,0 -5.404,1.272 -7.39,-5.006"
           inkscape:connector-curvature="0" />
      </g>
      <g
         id="g68"
         transform="matrix(1.25,0,0,-1.25,-22.086685,42.461235)">
        <path
           style="fill:#ffffff;fill-opacity:1;fill-rule:nonzero;stroke:none"
           id="path70"
           d="m 0,0 c 2.437,0 4.411,-2.383 4.411,-5.324 0,-2.942 -1.974,-5.324 -4.411,-5.324 -2.436,0 -4.41,2.382 -4.41,5.324 C -4.41,-2.383 -2.436,0 0,0"
           inkscape:connector-curvature="0" />
      </g>
      <g
         id="g72"
         transform="matrix(1.25,0,0,-1.25,-22.086685,42.461235)">
        <path
           style="fill:none;stroke:#000000;stroke-width:1.10000002;stroke-linecap:butt;stroke-linejoin:miter;stroke-miterlimit:4;stroke-opacity:1;stroke-dasharray:none"
           id="path74"
           d="m 0,0 c 2.437,0 4.411,-2.383 4.411,-5.324 0,-2.942 -1.974,-5.324 -4.411,-5.324 -2.436,0 -4.41,2.382 -4.41,5.324 C -4.41,-2.383 -2.436,0 0,0 z"
           inkscape:connector-curvature="0" />
      </g>
      <g
         id="g76"
         transform="matrix(1.25,0,0,-1.25,-1.568435,17.079735)">
        <path
           style="fill:#ffffff;fill-opacity:1;fill-rule:nonzero;stroke:none"
           id="path78"
           d="m 0,0 c 0,-1.176 -0.954,-2.13 -2.129,-2.13 -1.178,0 -2.131,0.954 -2.131,2.13 0,1.177 0.953,2.13 2.131,2.13 C -0.954,2.13 0,1.177 0,0"
           inkscape:connector-curvature="0" />
      </g>
      <g
         id="g80"
         transform="matrix(1.25,0,0,-1.25,-1.568435,17.079735)">
        <path
           style="fill:none;stroke:#000000;stroke-width:1.10000002;stroke-linecap:butt;stroke-linejoin:miter;stroke-miterlimit:4;stroke-opacity:1;stroke-dasharray:none"
           id="path82"
           d="m 0,0 c 0,-1.176 -0.954,-2.13 -2.129,-2.13 -1.178,0 -2.131,0.954 -2.131,2.13 0,1.177 0.953,2.13 2.131,2.13 C -0.954,2.13 0,1.177 0,0 z"
           inkscape:connector-curvature="0" />
      </g>
      <g
         id="g84"
         transform="matrix(1.25,0,0,-1.25,-18.29331,62.70411)">
        <path
           style="fill:#ffffff;fill-opacity:1;fill-rule:nonzero;stroke:none"
           id="path86"
           d="m 0,0 2.99,0 c 2.656,1.382 4.624,6.34 4.624,12.261 0,6.99 -2.74,12.656 -6.119,12.656 -3.38,0 -6.119,-5.666 -6.119,-12.656 C -4.624,6.34 -2.656,1.382 0,0"
           inkscape:connector-curvature="0" />
      </g>
      <g
         id="g88"
         transform="matrix(1.25,0,0,-1.25,-18.29331,62.70411)">
        <path
           style="fill:none;stroke:#000000;stroke-width:1.10000002;stroke-linecap:butt;stroke-linejoin:miter;stroke-miterlimit:4;stroke-opacity:1;stroke-dasharray:none"
           id="path90"
           d="m 0,0 2.99,0 c 2.656,1.382 4.624,6.34 4.624,12.261 0,6.99 -2.74,12.656 -6.119,12.656 -3.38,0 -6.119,-5.666 -6.119,-12.656 C -4.624,6.34 -2.656,1.382 0,0 z"
           inkscape:connector-curvature="0" />
      </g>
      <g
         id="g92"
         transform="matrix(1.25,0,0,-1.25,-1.12656,33.033735)">
        <path
           style="fill:#ffffff;fill-opacity:1;fill-rule:nonzero;stroke:none"
           id="path94"
           d="m 0,0 c 0,-4.411 -5.479,-7.986 -12.239,-7.986 -6.759,0 -12.238,3.575 -12.238,7.986 0,4.411 5.479,7.987 12.238,7.987 C -5.479,7.987 0,4.411 0,0"
           inkscape:connector-curvature="0" />
      </g>
      <g
         id="g96"
         transform="matrix(1.25,0,0,-1.25,-1.12656,33.033735)">
        <path
           style="fill:none;stroke:#000000;stroke-width:1.10000002;stroke-linecap:butt;stroke-linejoin:miter;stroke-miterlimit:4;stroke-opacity:1;stroke-dasharray:none"
           id="path98"
           d="m 0,0 c 0,-4.411 -5.479,-7.986 -12.239,-7.986 -6.759,0 -12.238,3.575 -12.238,7.986 0,4.411 5.479,7.987 12.238,7.987 C -5.479,7.987 0,4.411 0,0 z"
           inkscape:connector-curvature="0" />
      </g>
      <g
         id="g100"
         transform="matrix(1.25,0,0,-1.25,-20.448435,62.700485)">
        <path
           style="fill:none;stroke:#000000;stroke-width:1.10000002;stroke-linecap:round;stroke-linejoin:round;stroke-miterlimit:4;stroke-opacity:1;stroke-dasharray:none"
           id="path102"
           d="M 0,0 6.596,0"
           inkscape:connector-curvature="0" />
      </g>
      <g
         id="g156"
         transform="matrix(1.25,0,0,-1.25,-19.94806,31.08486)">
        <path
           style="fill:#ff4500;fill-opacity:1;fill-rule:nonzero;stroke:none"
           id="path158"
           d="m 0,0 c 0,-0.79 -0.641,-1.43 -1.43,-1.43 -0.791,0 -1.431,0.64 -1.431,1.43 0,0.791 0.64,1.431 1.431,1.431 C -0.641,1.431 0,0.791 0,0"
           inkscape:connector-curvature="0" />
      </g>
      <g
         id="g160"
         transform="matrix(1.25,0,0,-1.25,-19.94806,31.08486)">
        <path
           style="fill:none;stroke:#ff4500;stroke-width:1.10000002;stroke-linecap:butt;stroke-linejoin:miter;stroke-miterlimit:4;stroke-opacity:1;stroke-dasharray:none"
           id="path162"
           d="m 0,0 c 0,-0.79 -0.641,-1.43 -1.43,-1.43 -0.791,0 -1.431,0.64 -1.431,1.43 0,0.791 0.64,1.431 1.431,1.431 C -0.641,1.431 0,0.791 0,0 z"
           inkscape:connector-curvature="0" />
      </g>
      <g
         id="g164"
         transform="matrix(1.25,0,0,-1.25,-9.16981,31.08486)">
        <path
           style="fill:#ff4500;fill-opacity:1;fill-rule:nonzero;stroke:none"
           id="path166"
           d="m 0,0 c 0,-0.79 -0.64,-1.43 -1.43,-1.43 -0.789,0 -1.43,0.64 -1.43,1.43 0,0.791 0.641,1.431 1.43,1.431 C -0.64,1.431 0,0.791 0,0"
           inkscape:connector-curvature="0" />
      </g>
      <g
         id="g168"
         transform="matrix(1.25,0,0,-1.25,-9.16981,31.08486)">
        <path
           style="fill:none;stroke:#ff4500;stroke-width:1.10000002;stroke-linecap:butt;stroke-linejoin:miter;stroke-miterlimit:4;stroke-opacity:1;stroke-dasharray:none"
           id="path170"
           d="m 0,0 c 0,-0.79 -0.64,-1.43 -1.43,-1.43 -0.789,0 -1.43,0.64 -1.43,1.43 0,0.791 0.641,1.431 1.43,1.431 C -0.64,1.431 0,0.791 0,0 z"
           inkscape:connector-curvature="0" />
      </g>
      <g
         id="g172"
         transform="matrix(1.25,0,0,-1.25,-21.63556,37.628985)">
        <path
           style="fill:none;stroke:#000000;stroke-width:1.10000002;stroke-linecap:round;stroke-linejoin:miter;stroke-miterlimit:4;stroke-opacity:1;stroke-dasharray:none"
           id="path174"
           d="M 0,0 C 1.066,-1.066 2.786,-1.271 4.212,-1.271"
           inkscape:connector-curvature="0" />
      </g>
      <g
         id="g176"
         transform="matrix(1.25,0,0,-1.25,-11.06681,37.628985)">
        <path
           style="fill:none;stroke:#000000;stroke-width:1.10000002;stroke-linecap:round;stroke-linejoin:miter;stroke-miterlimit:4;stroke-opacity:1;stroke-dasharray:none"
           id="path178"
           d="M 0,0 C -1.067,-1.066 -2.785,-1.271 -4.212,-1.271"
           inkscape:connector-curvature="0" />
      </g>
    </g>
  </g>
</svg>
